<mxfile host="app.diagrams.net" agent="Mozilla/5.0 (X11; Linux x86_64) AppleWebKit/537.36 (KHTML, like Gecko) Chrome/137.0.0.0 Safari/537.36" version="27.1.6">
  <diagram name="Page-1" id="hZdx4WAk9RIkdtDrLOI7">
    <mxGraphModel dx="1414" dy="749" grid="1" gridSize="10" guides="1" tooltips="1" connect="1" arrows="1" fold="1" page="1" pageScale="1" pageWidth="850" pageHeight="1100" math="0" shadow="0">
      <root>
        <mxCell id="0" />
        <mxCell id="1" parent="0" />
        <mxCell id="cVk_4BceJhJT_HfghTbr-4" value="" style="edgeStyle=orthogonalEdgeStyle;rounded=0;orthogonalLoop=1;jettySize=auto;html=1;" parent="1" source="cVk_4BceJhJT_HfghTbr-2" target="cVk_4BceJhJT_HfghTbr-3" edge="1">
          <mxGeometry relative="1" as="geometry" />
        </mxCell>
        <mxCell id="cVk_4BceJhJT_HfghTbr-2" value="Mulai" style="rounded=0;whiteSpace=wrap;html=1;" parent="1" vertex="1">
          <mxGeometry x="40" y="310" width="120" height="60" as="geometry" />
        </mxCell>
        <mxCell id="cVk_4BceJhJT_HfghTbr-6" value="" style="edgeStyle=orthogonalEdgeStyle;rounded=0;orthogonalLoop=1;jettySize=auto;html=1;" parent="1" source="cVk_4BceJhJT_HfghTbr-3" target="cVk_4BceJhJT_HfghTbr-5" edge="1">
          <mxGeometry relative="1" as="geometry" />
        </mxCell>
        <mxCell id="cVk_4BceJhJT_HfghTbr-3" value="Persiapan Model Teacher" style="whiteSpace=wrap;html=1;rounded=0;" parent="1" vertex="1">
          <mxGeometry x="240" y="310" width="120" height="60" as="geometry" />
        </mxCell>
        <mxCell id="cVk_4BceJhJT_HfghTbr-8" value="" style="edgeStyle=orthogonalEdgeStyle;rounded=0;orthogonalLoop=1;jettySize=auto;html=1;" parent="1" source="cVk_4BceJhJT_HfghTbr-5" target="cVk_4BceJhJT_HfghTbr-7" edge="1">
          <mxGeometry relative="1" as="geometry" />
        </mxCell>
        <mxCell id="cVk_4BceJhJT_HfghTbr-5" value="Konstruksi Dataset Mentah (CodeAlpaca &amp;amp; GMS8K)" style="whiteSpace=wrap;html=1;rounded=0;" parent="1" vertex="1">
          <mxGeometry x="440" y="310" width="120" height="60" as="geometry" />
        </mxCell>
        <mxCell id="cVk_4BceJhJT_HfghTbr-30" value="" style="edgeStyle=orthogonalEdgeStyle;rounded=0;orthogonalLoop=1;jettySize=auto;html=1;" parent="1" source="cVk_4BceJhJT_HfghTbr-7" target="cVk_4BceJhJT_HfghTbr-29" edge="1">
          <mxGeometry relative="1" as="geometry" />
        </mxCell>
        <mxCell id="cVk_4BceJhJT_HfghTbr-7" value="Pembagian Subset Data (Train, Test, Validation)" style="whiteSpace=wrap;html=1;rounded=0;" parent="1" vertex="1">
          <mxGeometry x="640" y="310" width="120" height="60" as="geometry" />
        </mxCell>
        <mxCell id="Kaopdvo-rYEwLS7DeMfb-5" value="" style="edgeStyle=orthogonalEdgeStyle;rounded=0;orthogonalLoop=1;jettySize=auto;html=1;" edge="1" parent="1" source="cVk_4BceJhJT_HfghTbr-11" target="Kaopdvo-rYEwLS7DeMfb-4">
          <mxGeometry relative="1" as="geometry" />
        </mxCell>
        <mxCell id="Kaopdvo-rYEwLS7DeMfb-10" style="edgeStyle=orthogonalEdgeStyle;rounded=0;orthogonalLoop=1;jettySize=auto;html=1;entryX=1;entryY=0.5;entryDx=0;entryDy=0;" edge="1" parent="1" source="cVk_4BceJhJT_HfghTbr-11" target="Kaopdvo-rYEwLS7DeMfb-7">
          <mxGeometry relative="1" as="geometry" />
        </mxCell>
        <mxCell id="cVk_4BceJhJT_HfghTbr-11" value="Pelatihan Model Qwen2.5-0.5b" style="rounded=0;whiteSpace=wrap;html=1;" parent="1" vertex="1">
          <mxGeometry x="440" y="410" width="120" height="60" as="geometry" />
        </mxCell>
        <mxCell id="Kaopdvo-rYEwLS7DeMfb-9" style="edgeStyle=orthogonalEdgeStyle;rounded=0;orthogonalLoop=1;jettySize=auto;html=1;entryX=1;entryY=0.5;entryDx=0;entryDy=0;" edge="1" parent="1" source="cVk_4BceJhJT_HfghTbr-12" target="Kaopdvo-rYEwLS7DeMfb-4">
          <mxGeometry relative="1" as="geometry" />
        </mxCell>
        <mxCell id="cVk_4BceJhJT_HfghTbr-12" value="Pelatihan Model Qwen2.5-1.5b" style="rounded=0;whiteSpace=wrap;html=1;" parent="1" vertex="1">
          <mxGeometry x="440" y="480" width="120" height="60" as="geometry" />
        </mxCell>
        <mxCell id="Kaopdvo-rYEwLS7DeMfb-8" value="" style="edgeStyle=orthogonalEdgeStyle;rounded=0;orthogonalLoop=1;jettySize=auto;html=1;" edge="1" parent="1" source="cVk_4BceJhJT_HfghTbr-13" target="Kaopdvo-rYEwLS7DeMfb-7">
          <mxGeometry relative="1" as="geometry" />
        </mxCell>
        <mxCell id="Kaopdvo-rYEwLS7DeMfb-11" style="edgeStyle=orthogonalEdgeStyle;rounded=0;orthogonalLoop=1;jettySize=auto;html=1;entryX=1;entryY=0.5;entryDx=0;entryDy=0;" edge="1" parent="1" source="cVk_4BceJhJT_HfghTbr-13" target="Kaopdvo-rYEwLS7DeMfb-4">
          <mxGeometry relative="1" as="geometry" />
        </mxCell>
        <mxCell id="cVk_4BceJhJT_HfghTbr-13" value="Pelatihan Model Qwen2.5-7b" style="rounded=0;whiteSpace=wrap;html=1;" parent="1" vertex="1">
          <mxGeometry x="440" y="550" width="120" height="60" as="geometry" />
        </mxCell>
        <mxCell id="Kaopdvo-rYEwLS7DeMfb-1" style="edgeStyle=orthogonalEdgeStyle;rounded=0;orthogonalLoop=1;jettySize=auto;html=1;entryX=1;entryY=0.5;entryDx=0;entryDy=0;" edge="1" parent="1" source="cVk_4BceJhJT_HfghTbr-29" target="cVk_4BceJhJT_HfghTbr-11">
          <mxGeometry relative="1" as="geometry" />
        </mxCell>
        <mxCell id="Kaopdvo-rYEwLS7DeMfb-2" style="edgeStyle=orthogonalEdgeStyle;rounded=0;orthogonalLoop=1;jettySize=auto;html=1;entryX=1;entryY=0.5;entryDx=0;entryDy=0;" edge="1" parent="1" source="cVk_4BceJhJT_HfghTbr-29" target="cVk_4BceJhJT_HfghTbr-12">
          <mxGeometry relative="1" as="geometry" />
        </mxCell>
        <mxCell id="Kaopdvo-rYEwLS7DeMfb-3" style="edgeStyle=orthogonalEdgeStyle;rounded=0;orthogonalLoop=1;jettySize=auto;html=1;entryX=1;entryY=0.5;entryDx=0;entryDy=0;" edge="1" parent="1" source="cVk_4BceJhJT_HfghTbr-29" target="cVk_4BceJhJT_HfghTbr-13">
          <mxGeometry relative="1" as="geometry" />
        </mxCell>
        <mxCell id="cVk_4BceJhJT_HfghTbr-29" value="Persiapan Model Student" style="whiteSpace=wrap;html=1;rounded=0;" parent="1" vertex="1">
          <mxGeometry x="640" y="480" width="120" height="60" as="geometry" />
        </mxCell>
        <mxCell id="Kaopdvo-rYEwLS7DeMfb-13" value="" style="edgeStyle=orthogonalEdgeStyle;rounded=0;orthogonalLoop=1;jettySize=auto;html=1;" edge="1" parent="1" source="Kaopdvo-rYEwLS7DeMfb-4" target="Kaopdvo-rYEwLS7DeMfb-12">
          <mxGeometry relative="1" as="geometry" />
        </mxCell>
        <mxCell id="Kaopdvo-rYEwLS7DeMfb-4" value="Evaluasi ExactMatch GMS8K" style="whiteSpace=wrap;html=1;rounded=0;" vertex="1" parent="1">
          <mxGeometry x="240" y="450" width="120" height="60" as="geometry" />
        </mxCell>
        <mxCell id="Kaopdvo-rYEwLS7DeMfb-14" style="edgeStyle=orthogonalEdgeStyle;rounded=0;orthogonalLoop=1;jettySize=auto;html=1;entryX=1;entryY=0.5;entryDx=0;entryDy=0;" edge="1" parent="1" source="Kaopdvo-rYEwLS7DeMfb-7" target="Kaopdvo-rYEwLS7DeMfb-12">
          <mxGeometry relative="1" as="geometry" />
        </mxCell>
        <mxCell id="Kaopdvo-rYEwLS7DeMfb-7" value="Evaluasi LLM-as-a-Judge CodeAlpaca" style="whiteSpace=wrap;html=1;rounded=0;" vertex="1" parent="1">
          <mxGeometry x="240" y="530" width="120" height="60" as="geometry" />
        </mxCell>
        <mxCell id="Kaopdvo-rYEwLS7DeMfb-16" value="" style="edgeStyle=orthogonalEdgeStyle;rounded=0;orthogonalLoop=1;jettySize=auto;html=1;" edge="1" parent="1" source="Kaopdvo-rYEwLS7DeMfb-12" target="Kaopdvo-rYEwLS7DeMfb-15">
          <mxGeometry relative="1" as="geometry" />
        </mxCell>
        <mxCell id="Kaopdvo-rYEwLS7DeMfb-12" value="Analisis Hasil" style="whiteSpace=wrap;html=1;rounded=0;" vertex="1" parent="1">
          <mxGeometry x="40" y="420" width="120" height="60" as="geometry" />
        </mxCell>
        <mxCell id="Kaopdvo-rYEwLS7DeMfb-15" value="Selesai" style="whiteSpace=wrap;html=1;rounded=0;" vertex="1" parent="1">
          <mxGeometry x="40" y="550" width="120" height="60" as="geometry" />
        </mxCell>
      </root>
    </mxGraphModel>
  </diagram>
</mxfile>
